HIERARCHY
ROOT SimulationBone
{
	OFFSET 0.000000 0.000000 0.000000
	CHANNELS 6 Xposition Yposition Zposition Zrotation Yrotation Xrotation 
	JOINT Hips
	{
		OFFSET 0.000000 0.000000 0.000000
		CHANNELS 6 Xposition Yposition Zposition Zrotation Yrotation Xrotation 
		JOINT LeftUpLeg
		{
			OFFSET 0.103462 1.857831 10.548502
			CHANNELS 3 Zrotation Yrotation Xrotation
			JOINT LeftLeg
			{
				OFFSET 43.500008 -0.000027 -0.000004
				CHANNELS 3 Zrotation Yrotation Xrotation
				JOINT LeftFoot
				{
					OFFSET 42.372200 0.000011 -0.000002
					CHANNELS 3 Zrotation Yrotation Xrotation
					JOINT LeftToe
					{
						OFFSET 17.299999 -0.000001 -0.000002
						CHANNELS 3 Zrotation Yrotation Xrotation
						End Site
						{
							OFFSET 0.000000 0.000000 0.000000
						}
					}
				}
			}
		}
		JOINT RightUpLeg
		{
			OFFSET 0.103458 1.857828 -10.548501
			CHANNELS 3 Zrotation Yrotation Xrotation
			JOINT RightLeg
			{
				OFFSET 43.500038 -0.000031 0.000011
				CHANNELS 3 Zrotation Yrotation Xrotation
				JOINT RightFoot
				{
					OFFSET 42.372257 -0.000004 0.000010
					CHANNELS 3 Zrotation Yrotation Xrotation
					JOINT RightToe
					{
						OFFSET 17.299994 -0.000005 0.000004
						CHANNELS 3 Zrotation Yrotation Xrotation
						End Site
						{
							OFFSET 0.000000 0.000000 0.000000
						}
					}
				}
			}
		}
		JOINT Spine
		{
			OFFSET 6.901966 -2.603733 0.000000
			CHANNELS 3 Zrotation Yrotation Xrotation
			JOINT Spine1
			{
				OFFSET 12.588101 0.000002 0.000000
				CHANNELS 3 Zrotation Yrotation Xrotation
				JOINT Spine2
				{
					OFFSET 12.343201 0.000004 -0.000002
					CHANNELS 3 Zrotation Yrotation Xrotation
					JOINT Neck
					{
						OFFSET 25.832895 -0.000004 0.000002
						CHANNELS 3 Zrotation Yrotation Xrotation
						JOINT Head
						{
							OFFSET 11.766604 0.000011 0.000001
							CHANNELS 3 Zrotation Yrotation Xrotation
							End Site
							{
								OFFSET 0.000000 0.000000 0.000000
							}
						}
					}
					JOINT LeftShoulder
					{
						OFFSET 19.745903 -1.480368 6.000108
						CHANNELS 3 Zrotation Yrotation Xrotation
						JOINT LeftArm
						{
							OFFSET 11.284126 -0.000007 -0.000022
							CHANNELS 3 Zrotation Yrotation Xrotation
							JOINT LeftForeArm
							{
								OFFSET 33.000053 0.000001 0.000028
								CHANNELS 3 Zrotation Yrotation Xrotation
								JOINT LeftHand
								{
									OFFSET 25.200005 0.000019 0.000013
									CHANNELS 3 Zrotation Yrotation Xrotation
									End Site
									{
										OFFSET 0.000000 0.000000 0.000000
									}
								}
							}
						}
					}
					JOINT RightShoulder
					{
						OFFSET 19.746094 -1.480373 -6.000072
						CHANNELS 3 Zrotation Yrotation Xrotation
						JOINT RightArm
						{
							OFFSET 11.284138 -0.000017 -0.000010
							CHANNELS 3 Zrotation Yrotation Xrotation
							JOINT RightForeArm
							{
								OFFSET 33.000092 0.000013 0.000009
								CHANNELS 3 Zrotation Yrotation Xrotation
								JOINT RightHand
								{
									OFFSET 25.199776 0.000139 0.000415
									CHANNELS 3 Zrotation Yrotation Xrotation
									End Site
									{
										OFFSET 0.000000 0.000000 0.000000
									}
								}
							}
						}
					}
				}
			}
		}
	}
}
MOTION
Frames: 6
Frame Time: 0.016667
-218.594983 0.000000 126.594831 0.000000 90.655448 0.000000 1.759864 91.666423 0.754212 96.139021 1.141339 179.995149 -175.315326 -4.608642 177.248460 -8.899246 -4.841080 -9.259618 75.105646 5.997675 -2.571018 21.454558 0.003104 0.000018 -175.393383 -0.367707 -175.709868 -11.467312 1.731185 6.982738 74.889020 -4.535556 1.693713 21.454553 -0.003093 -0.000001 7.430261 -0.159362 -0.212556 4.848273 -0.309709 -0.431562 4.530180 -0.312442 -0.429687 2.883349 6.252154 4.642479 -15.395029 -9.549067 9.068398 -162.756307 -69.452967 -19.142290 -22.670528 54.787948 19.148601 -43.107287 -17.602239 1.741156 4.981402 0.189292 17.484845 -170.145073 76.195656 11.563996 -20.104968 -63.992102 -13.298298 -41.179458 17.291026 -1.638879 6.649179 0.148731 -33.796809 
-218.485996 0.000000 126.533742 0.000000 90.754517 0.000000 1.824250 91.676048 0.748179 96.203230 1.169262 -179.974883 -175.144574 -4.721294 177.297982 -8.809613 -4.876061 -9.215245 75.090156 5.958883 -2.603342 21.454560 0.003110 0.000017 -175.039867 -0.456699 -175.730741 -11.083513 1.789075 7.064542 74.806819 -4.609398 1.642717 21.454555 -0.003097 -0.000001 7.399738 -0.135251 -0.217413 4.787141 -0.261419 -0.440206 4.469050 -0.264215 -0.438620 3.167820 6.095868 4.404654 -15.312212 -9.247078 8.672806 -162.823963 -69.438214 -19.072606 -22.776474 54.651893 19.747285 -41.601148 -17.440401 1.688268 5.538372 0.540380 18.169555 -169.745404 76.053086 11.972191 -19.787112 -63.952774 -13.853821 -40.455793 17.121194 -1.608242 7.046213 -0.458407 -33.796284 
-218.371485 0.000000 126.468851 0.000000 90.856700 0.000000 1.886085 91.685714 0.736522 96.292775 1.175269 -179.949149 -174.953040 -4.799941 177.416000 -8.722616 -4.896919 -9.211450 75.077401 5.942810 -2.657193 21.454558 0.003114 0.000017 -174.667038 -0.577619 -176.156706 -10.694911 1.814546 7.394615 74.718859 -4.831737 1.684600 21.454553 -0.003090 -0.000001 7.379597 -0.117734 -0.225179 4.746797 -0.226152 -0.454969 4.428708 -0.229043 -0.453595 3.430992 6.006775 4.171709 -15.264628 -9.000760 8.316911 -162.809558 -69.428973 -19.087537 -22.821351 54.569447 20.442666 -40.090812 -17.302858 1.639023 6.100619 0.685893 18.816732 -169.321862 75.920224 12.405055 -19.528898 -63.914149 -14.525354 -39.582058 16.993200 -1.576993 7.283768 -0.919473 -34.088410 
-218.250105 0.000000 126.399536 0.000000 90.962208 0.000000 1.941811 91.693741 0.720512 96.393082 1.169665 -179.928270 -174.756619 -4.864306 177.576763 -8.640864 -4.914951 -9.232280 75.067678 5.940791 -2.723068 21.454557 0.003112 0.000017 -174.306168 -0.730507 -176.737511 -10.333937 1.775047 7.819902 74.635791 -5.102693 1.787391 21.454551 -0.003084 0.000000 7.365919 -0.102992 -0.235576 4.719397 -0.196307 -0.475122 4.401306 -0.199318 -0.473933 3.672335 5.960009 3.942410 -15.237397 -8.780288 7.983187 -162.729666 -69.407792 -19.170207 -22.734186 54.523718 21.097717 -38.662476 -17.102398 1.587651 6.600369 0.686797 19.426002 -168.880210 75.792398 12.856600 -19.314353 -63.874131 -15.258543 -38.571136 16.854911 -1.541693 7.442995 -1.156963 -34.513522 
-218.120491 0.000000 126.325631 0.000000 91.071766 0.000000 1.988105 91.697568 0.702603 96.486059 1.164240 -179.910686 -174.584323 -4.936598 177.746729 -8.586145 -4.939560 -9.254878 75.069661 5.939075 -2.792326 21.454559 0.003104 0.000017 -173.993462 -0.910976 -177.187356 -10.040903 1.655727 8.167826 74.576041 -5.313454 1.903922 21.454551 -0.003088 0.000000 7.353832 -0.086540 -0.247702 4.695180 -0.162980 -0.498671 4.377083 -0.166126 -0.497692 3.889971 5.923575 3.713275 -15.213443 -8.550106 7.649231 -162.611917 -69.358418 -19.292326 -22.444880 54.503378 21.595681 -37.401743 -16.779757 1.533680 6.998582 0.632443 19.983719 -168.414961 75.657152 13.332366 -19.107629 -63.823460 -15.989563 -37.460424 16.652840 -1.500609 7.627041 -1.175991 -34.899422 
-217.981245 0.000000 126.247431 0.000000 91.186759 0.000000 2.024325 91.696419 0.682923 96.560342 1.159119 -179.894160 -174.454971 -5.020010 177.907836 -8.572261 -4.971048 -9.265860 75.087991 5.928906 -2.862377 21.454562 0.003095 0.000017 -173.738771 -1.088195 -177.350930 -9.830600 1.500274 8.350914 74.556732 -5.418727 1.979481 21.454553 -0.003094 0.000001 7.340835 -0.067216 -0.262781 4.669122 -0.123805 -0.528020 4.351027 -0.127124 -0.527280 4.075588 5.881231 3.493025 -15.186591 -8.317367 7.324037 -162.418988 -69.276400 -19.492510 -21.945894 54.512339 22.075001 -36.373676 -16.457150 1.488750 7.360463 0.568055 20.440261 -167.956509 75.524662 13.801383 -18.862342 -63.775428 -16.680673 -36.312771 16.378191 -1.455022 7.859724 -1.109493 -35.202637 
